<svg xmlns="http://www.w3.org/2000/svg" xmlns:xlink="http://www.w3.org/1999/xlink" width="960" height="480" version="1.0" viewBox="0 0 240 120"><title>Flag of New Zealand</title><rect width="240" height="120" fill="#00247d"/><svg width="120" height="60" viewBox="0 0 12 6"><clipPath id="t"><path d="M6,3 h6 v3 z v3 h-6 z h-6 v-3 z v-3 h6 z"/></clipPath><g stroke="#cf142b" stroke-width="1.2"><path stroke="#fff" d="M0,0 L12,6 M12,0 L0,6"/><path stroke-width=".8" d="M0,0 L12,6 M12,0 L0,6" clip-path="url(#t)"/><path stroke="#fff" stroke-width="2" d="M6,0 v6 M0,3 h12"/><path d="M6,0 v6 M0,3 h12"/></g></svg><polygon id="star" points="0 -513674 301930 415571 -488533 -158734 488533 -158734 -301930 415571" transform="scale(0.00000102347231405)"/><g transform="translate(180,24)"><use fill="#fff" transform="scale(18.472135955)" xlink:href="#star"/><use fill="#cc142b" transform="scale(12)" xlink:href="#star"/></g><g transform="translate(180,96)"><use fill="#fff" transform="scale(20.472135955)" xlink:href="#star"/><use fill="#cc142b" transform="scale(14)" xlink:href="#star"/></g><g transform="rotate(-8,180,48) translate(204,48) rotate(8)"><use fill="#fff" transform="scale(16.472135955)" xlink:href="#star"/><use fill="#cc142b" transform="scale(10)" xlink:href="#star"/></g><g transform="rotate(-8,180,48) translate(152,48) rotate(8)"><use fill="#fff" transform="scale(18.472135955)" xlink:href="#star"/><use fill="#cc142b" transform="scale(12)" xlink:href="#star"/></g></svg>